<?xml version="1.0" encoding="UTF-8" standalone="no"?>
<!-- Created with Inkscape (http://www.inkscape.org/) -->

<svg
   xmlns:dc="http://purl.org/dc/elements/1.1/"
   xmlns:cc="http://creativecommons.org/ns#"
   xmlns:rdf="http://www.w3.org/1999/02/22-rdf-syntax-ns#"
   xmlns:svg="http://www.w3.org/2000/svg"
   xmlns="http://www.w3.org/2000/svg"
   xmlns:sodipodi="http://sodipodi.sourceforge.net/DTD/sodipodi-0.dtd"
   xmlns:inkscape="http://www.inkscape.org/namespaces/inkscape"
   width="210mm"
   height="297mm"
   viewBox="0 0 210 297"
   version="1.1"
   id="svg1406"
   inkscape:version="0.92.3 (2405546, 2018-03-11)"
   sodipodi:docname="logos.svg">
  <defs
     id="defs1400" />
  <sodipodi:namedview
     id="base"
     pagecolor="#ffffff"
     bordercolor="#666666"
     borderopacity="1.0"
     inkscape:pageopacity="0.0"
     inkscape:pageshadow="2"
     inkscape:zoom="0.25"
     inkscape:cx="-747.80837"
     inkscape:cy="814.53924"
     inkscape:document-units="mm"
     inkscape:current-layer="layer1"
     showgrid="false"
     inkscape:measure-start="0,0"
     inkscape:measure-end="0,0"
     showguides="true"
     inkscape:guide-bbox="true"
     inkscape:window-width="1920"
     inkscape:window-height="1017"
     inkscape:window-x="0"
     inkscape:window-y="0"
     inkscape:window-maximized="1">
    <sodipodi:guide
       position="132.29166,297.08929"
       orientation="0,1"
       id="guide1434"
       inkscape:locked="false" />
    <sodipodi:guide
       position="99.318659,269.61019"
       orientation="0,1"
       id="guide1436"
       inkscape:locked="false" />
    <inkscape:grid
       type="xygrid"
       id="grid1451" />
  </sodipodi:namedview>
  <metadata
     id="metadata1403">
    <rdf:RDF>
      <cc:Work
         rdf:about="">
        <dc:format>image/svg+xml</dc:format>
        <dc:type
           rdf:resource="http://purl.org/dc/dcmitype/StillImage" />
        <dc:title></dc:title>
      </cc:Work>
    </rdf:RDF>
  </metadata>
  <g
     inkscape:label="Layer 1"
     inkscape:groupmode="layer"
     id="layer1">
    <path
       style="fill:#000000;stroke-width:0.26458332"
       d="m 43.637354,122.73901 c -4.201068,-1.68695 -5.104456,-2.11271 -8.188185,-3.8591 -11.186665,-6.33525 -20.380705,-16.4821 -26.1326496,-28.840864 -2.163825,-4.64925 -4.211336,-11.6544 -4.775351,-16.33793 -0.170863,-1.41883 -0.403572,-2.57969 -0.517133,-2.57969 -0.11356,0 -0.206473,-3.03609 -0.206473,-6.74687 0,-4.321527 0.09511,-6.746875 0.264583,-6.746875 0.145521,0 0.264584,-0.395738 0.264584,-0.879417 0,-3.031993 2.316317,-11.907615 4.362296,-16.715375 C 12.817423,30.378741 19.270362,21.832204 27.365479,15.323517 35.233235,8.997633 45.006541,4.451421 54.477854,2.711752 c 15.758717,-2.89452295 30.868707,-0.299045 44.242117,7.599572 12.913299,7.62687 22.960719,20.120346 27.595989,34.314279 1.23645,3.786217 2.38493,8.574863 2.38493,9.944103 0,0.372197 0.11907,0.676725 0.26459,0.676725 0.3154,0 0.37573,18.164055 0.0608,18.300345 -0.11209,0.0485 -0.4064,1.27882 -0.65403,2.73403 -1.19422,7.01806 -4.60692,15.42621 -8.96699,22.09271 -7.377,11.279374 -17.23452,19.427734 -29.251679,24.179844 -3.94967,1.56188 -5.13559,1.75819 -6.46583,1.07029 -1.49583,-0.77353 -1.55259,-1.21701 -1.56274,-12.2109 -0.0101,-10.89574 -0.19291,-12.890054 -1.42948,-15.591084 -0.38078,-0.83172 -1.11913,-2.03308 -1.64078,-2.66969 -0.52165,-0.6366 -0.90537,-1.19322 -0.85271,-1.23693 0.0526,-0.0437 1.22494,-0.23005 2.60507,-0.41409 5.91505,-0.78879 11.47704,-2.82718 15.44992,-5.66216 5.049639,-3.60335 8.059159,-8.76613 9.601089,-16.47049 0.35744,-1.78603 0.46888,-3.61428 0.46563,-7.63958 -0.004,-4.624304 -0.0776,-5.558616 -0.58597,-7.408337 -0.76387,-2.779538 -2.36011,-5.985812 -4.10317,-8.241792 l -1.4058,-1.819476 0.51623,-1.583949 c 0.4087,-1.253996 0.52139,-2.383126 0.54097,-5.420408 0.0258,-3.993351 -0.3137,-6.003383 -1.469679,-8.702783 l -0.49767,-1.162159 -1.91148,0.153149 c -1.05132,0.08423 -2.68539,0.407866 -3.63128,0.719185 -2.46904,0.812644 -6.71327,2.876852 -9.21585,4.48219 l -2.15579,1.382879 -2.84699,-0.668705 c -4.89418,-1.149549 -6.79224,-1.347849 -12.90116,-1.347849 -6.08113,0 -7.897754,0.189958 -12.871132,1.345891 l -2.816969,0.654732 -1.945531,-1.24869 c -4.078668,-2.617788 -10.145913,-5.063667 -13.195046,-5.319295 -1.789859,-0.150055 -1.797788,-0.147732 -2.208869,0.647211 -1.532405,2.963344 -2.189281,9.193191 -1.363323,12.929833 0.253791,1.148143 0.567097,2.288053 0.696237,2.533131 0.178017,0.337836 -0.119909,0.913707 -1.231939,2.38125 -1.832094,2.41781 -3.389415,5.53284 -4.142315,8.285655 -0.507846,1.85683 -0.578904,2.782501 -0.578848,7.540627 5.3e-5,4.60155 0.08869,5.8345 0.584587,8.13161 1.567977,7.26325 4.378913,12.0726 9.175224,15.69826 1.505723,1.13822 6.488972,3.6758 8.466667,4.31141 1.77451,0.57031 6.050978,1.43313 8.188764,1.65215 0.953212,0.0977 1.733111,0.23038 1.733111,0.29493 0,0.0645 -0.413486,0.62198 -0.918861,1.23872 -1.193721,1.45678 -2.208496,3.69821 -2.580889,5.70065 l -0.297204,1.598134 -1.414814,0.52935 c -1.977586,0.73991 -4.877612,1.14272 -7.24168,1.00587 -3.92974,-0.22749 -6.762557,-2.209164 -9.870419,-6.904764 -2.372908,-3.58518 -5.648576,-5.81765 -9.037947,-6.15965 -3.880961,-0.3916 -4.008594,1.4146 -0.271991,3.84909 2.20674,1.43775 4.230901,4.05709 5.838245,7.554924 0.667743,1.45312 1.357333,2.93968 1.532424,3.30348 0.526436,1.09383 2.92178,3.34218 4.309221,4.04478 1.949508,0.98722 3.71502,1.43626 7.112037,1.80888 2.796855,0.30679 5.704224,0.18143 8.406972,-0.36251 0.259606,-0.0522 0.349697,1.31558 0.405047,6.14971 0.07698,6.72319 -0.01466,7.31484 -1.271449,8.20976 -1.178463,0.83914 -2.638963,0.65639 -6.208067,-0.77679 z"
       id="path1419"
       inkscape:connector-curvature="0" />
    <path
       style="fill:#000000;stroke-width:0.20384261"
       d="M 205.98368,101.48342 V 77.131833 l 7.49121,-0.05347 7.49122,-0.05347 0.34778,-2.649951 c 0.19128,-1.457474 0.67527,-5.218368 1.07555,-8.357542 0.40028,-3.139182 0.76834,-5.822261 0.81792,-5.962402 0.0712,-0.20126 -1.72905,-0.254804 -8.56677,-0.254804 h -8.65691 l 0.002,-6.166235 c 7.7e-4,-3.391435 0.0959,-6.762477 0.21123,-7.491218 0.4446,-2.809353 1.80287,-4.52979 4.20793,-5.329927 1.29065,-0.42939 1.81029,-0.467249 7.35122,-0.535586 l 5.96239,-0.0735 v -7.802687 -7.802679 l -3.72012,-0.267023 c -5.53448,-0.397249 -12.24425,-0.369459 -14.57542,0.0604 -9.2469,1.70499 -15.03278,7.542976 -16.9104,17.062679 -0.22365,1.133963 -0.32849,3.700539 -0.40591,9.937329 l -0.10438,8.408506 -7.46933,-6.1e-5 -7.46932,-6.2e-5 0.0552,8.663372 0.0552,8.663379 h 7.43594 7.43595 v 24.053429 c 0,21.86851 -0.0295,24.05342 -0.3247,24.05342 -0.17859,0 -1.21055,-0.18143 -2.29323,-0.40317 -4.88675,-1.00085 -10.30326,-2.94168 -15.21839,-5.45297 -24.25555,-12.39291 -37.60822,-38.965391 -33.01054,-65.692615 2.14576,-12.47372 7.75546,-23.563911 16.46048,-32.54188 3.87561,-3.997138 6.63824,-6.301175 10.94439,-9.127639 20.30714,-13.3291732 47.36861,-13.3291732 67.67575,0 4.30614,2.826464 7.06878,5.130501 10.9444,9.127639 11.1081,11.4564 17.38623,26.961163 17.38623,42.937853 0,20.978609 -10.63288,40.580592 -28.22871,52.040302 -7.84596,5.10987 -14.96944,7.76165 -25.83705,9.61806 l -0.56057,0.0958 z"
       id="path1432"
       inkscape:connector-curvature="0" />
    <path
       style="fill:#000000;stroke-width:0.26458332"
       d="m 59.711066,236.39362 c -19.59487,-2.97198 -35.583094,-15.976 -42.542814,-34.60219 -3.40304,-9.10748 -4.05138,-20.69954 -1.71704,-30.70003 2.18242,-9.34969 7.38878,-18.45912 14.56262,-25.47985 8.611114,-8.42732 19.103904,-13.48731 30.969874,-14.93474 3.47025,-0.4233 12.25905,-0.19354 15.55648,0.4067 10.51789,1.91459 20.035,6.81526 27.729114,14.27861 8.84559,8.58028 14.13248,18.97347 15.82085,31.10127 0.54647,3.92534 0.39412,12.68243 -0.28538,16.40417 -1.43194,7.84293 -4.49873,15.03889 -9.38839,22.02901 -2.24509,3.20952 -8.63766,9.60209 -11.847184,11.84718 -6.98733,4.88771 -14.16452,7.9473 -22.02901,9.39084 -3.3891,0.62208 -13.41777,0.77644 -16.82912,0.25903 z m 3.50281,-29.2071 c 7.12823,-1.3818 12.81936,-4.48993 17.88674,-9.76857 5.96565,-6.21435 9.42712,-14.23881 9.8957,-22.94046 l 0.17106,-3.17652 1.18271,-0.92452 c 1.12085,-0.87615 4.65601,-4.75617 4.48723,-4.92495 -0.0436,-0.0436 -0.96707,0.20229 -2.05223,0.54635 -1.08517,0.34405 -2.56834,0.71114 -3.29595,0.81575 l -1.32291,0.19019 1.22574,-0.94717 c 1.23947,-0.95777 2.71273,-2.77935 3.50252,-4.33061 0.63218,-1.24169 0.53369,-1.44428 -0.42878,-0.88202 -1.13245,0.66155 -3.40336,1.54209 -5.15107,1.99731 l -1.40499,0.36595 -1.69012,-1.27925 c -2.74407,-2.07698 -6.252,-2.97171 -9.41476,-2.40133 -3.602,0.64958 -6.89222,2.95719 -8.68515,6.09134 -1.1205,1.95868 -1.75042,4.86211 -1.52733,7.03963 l 0.17305,1.68909 -0.73497,-0.001 c -1.64832,-0.002 -5.92562,-0.87046 -8.45026,-1.71496 -5.17544,-1.7312 -9.82747,-4.59624 -13.61832,-8.38709 -1.29638,-1.29639 -2.47054,-2.28693 -2.60924,-2.20122 -0.13869,0.0857 -0.50098,0.9545 -0.80508,1.93061 -1.44832,4.64892 -0.0638,9.73996 3.49551,12.85357 l 1.30373,1.14048 -1.55633,-0.21284 c -0.85598,-0.11707 -2.12796,-0.45787 -2.82662,-0.75736 l -1.27029,-0.54451 0.17206,1.29711 c 0.62872,4.73948 3.91857,8.98184 7.95091,10.25292 0.7963,0.25101 1.38662,0.5554 1.31183,0.67641 -0.0748,0.12101 -1.20052,0.22002 -2.50161,0.22002 -1.3011,0 -2.36564,0.0633 -2.36564,0.14079 0,0.45479 0.92697,2.21875 1.76813,3.36464 1.82612,2.48767 4.19783,3.84463 8.55062,4.89218 l 0.92604,0.22286 -2.21782,1.36595 c -3.98827,2.45636 -7.90731,3.56481 -12.77128,3.61217 -1.55005,0.0151 -2.68114,0.1219 -2.51354,0.23734 0.88588,0.61016 5.04365,2.58758 6.65473,3.16496 5.63946,2.0211 12.3629,2.48735 18.55598,1.28682 z"
       id="path1449"
       inkscape:connector-curvature="0" />
    <path
       style="fill:#000000;stroke-width:0.37585399"
       d="m 165.43256,229.59384 c -8.85571,-1.89653 -16.26208,-6.05057 -22.55622,-12.65118 -5.82415,-6.10773 -9.52161,-13.37558 -11.11029,-21.83871 -0.92453,-4.92518 -0.58951,-13.68534 0.71227,-18.6244 4.26865,-16.19561 17.85378,-28.61264 34.45767,-31.49488 3.61168,-0.62695 10.66157,-0.62796 14.28244,-0.001 17.86327,3.08785 31.73325,16.71192 35.20551,34.58128 0.83038,4.27339 0.82257,11.60511 -0.0169,15.92985 -3.36727,17.34607 -17.03162,30.9493 -34.39734,34.24353 -4.32055,0.81959 -12.40694,0.74961 -16.57706,-0.14345 z m 28.20136,-20.8809 c 2.26239,-1.16992 2.24282,-0.9847 2.24282,-21.22939 0,-20.24468 0.0196,-20.05945 -2.24282,-21.22938 -1.65249,-0.85454 -37.46093,-0.85454 -39.11342,0 -2.26256,1.17001 -2.24282,0.98303 -2.24282,21.2467 0,16.36559 0.0695,18.58919 0.60994,19.50401 1.3698,2.31888 0.79594,2.25724 21.11429,2.26821 15.84107,0.009 18.68944,-0.0727 19.63201,-0.56015 z m -36.47945,-5.28006 c -0.20328,-0.53468 -0.36654,-5.22206 -0.36654,-10.52391 v -9.5598 l 1.97323,-8e-5 1.97323,-7e-5 v 3.85258 c 0,3.46462 0.10668,4.06979 1.0593,6.00975 1.34963,2.74841 3.80731,5.20611 6.55572,6.55573 1.90632,0.9361 2.57243,1.05929 5.7278,1.05929 3.08421,0 3.86228,-0.13666 5.71166,-1.00359 2.73125,-1.28026 5.34731,-3.89632 6.62755,-6.62755 0.88305,-1.88386 1.00361,-2.60386 1.00361,-5.99374 v -3.85269 l 1.97323,1.8e-4 1.97323,1.9e-4 v 9.79691 c 0,6.0345 -0.14941,10.07611 -0.38908,10.52391 -0.37562,0.70185 -0.96105,0.72699 -16.92273,0.72699 h -16.53365 z m 12.51129,-8.44061 c -2.80016,-1.60589 -4.22483,-4.14677 -4.22966,-7.54357 -0.006,-4.37031 2.62871,-7.67563 6.8767,-8.62629 6.04379,-1.35253 11.67918,4.23426 10.41477,10.32496 -1.23279,5.93826 -7.78588,8.87064 -13.06181,5.8449 z m 14.19688,-19.13547 c -0.60609,-1.13249 -0.47908,-4.99092 0.19601,-5.95475 0.51362,-0.73329 0.91975,-0.83534 3.32444,-0.83534 3.51185,0 3.9834,0.44024 3.9834,3.71889 0,3.61214 -0.19331,3.79819 -3.94646,3.79819 -2.74774,0 -3.21996,-0.0965 -3.55739,-0.72699 z"
       id="path1464"
       inkscape:connector-curvature="0" />
    <path
       style="fill:#000000;stroke-width:0.26458332"
       d="m 338.53438,155.95107 c -22.47545,-1.83945 -43.28113,-13.32075 -56.84765,-31.37054 -8.46407,-11.26116 -13.43829,-23.49083 -15.4251,-37.92428 -0.63154,-4.58798 -0.63154,-14.99119 0,-19.57917 3.0302,-22.01334 13.93809,-40.76083 31.24747,-53.70527 31.55217,-23.59559 75.53925,-20.5107298 103.4329,7.25385 23.73433,23.62452 30.05254,59.1745 15.96758,89.84309 -1.4241,3.10082 -3.48419,6.71571 -5.88057,10.31875 -15.99252,24.04529 -43.7624,37.51509 -72.49463,35.16357 z m 29.10417,-42.05972 c 7.97334,-0.30976 14.71186,-0.85158 17.72708,-1.42535 5.31201,-1.01085 9.40811,-4.56402 10.82365,-9.38902 1.31792,-4.49224 2.00691,-11.77477 2.19182,-23.16761 0.19461,-11.98981 -0.31687,-20.352 -1.65878,-27.11979 -1.14758,-5.78768 -5.07086,-9.98068 -10.52144,-11.24475 -12.15224,-2.8183 -72.00354,-2.81565 -82.8276,0.004 -2.1929,0.57118 -3.88445,1.51712 -5.67145,3.17157 -3.54409,3.2812 -4.43211,5.83734 -5.51502,15.87473 -0.58393,5.41233 -0.67377,25.46869 -0.13986,31.22083 0.45969,4.95261 1.23518,9.70512 1.89613,11.62031 1.50012,4.34679 5.56091,7.92877 10.051,8.86588 8.53166,1.7806 39.08472,2.54367 63.64447,1.58954 z M 334.43334,76.84885 V 60.94341 l 1.56009,0.88402 c 7.66845,4.34534 25.93725,14.93502 25.94577,15.03971 0.009,0.11367 -24.12545,14.09061 -26.62274,15.41782 l -0.88312,0.46934 z"
       id="path1477"
       inkscape:connector-curvature="0" />
    <path
       style="fill:#000000;stroke-width:0.26458332"
       d="m 280.98749,267.47212 c -4.37648,-0.52621 -5.76298,-0.73327 -8.06979,-1.20516 -8.14689,-1.66652 -17.82841,-6.19144 -24.46925,-11.43636 -13.00405,-10.27057 -21.25403,-25.05363 -23.00926,-41.23007 -0.3942,-3.63305 -0.3457,-10.40887 0.10006,-13.97726 1.89857,-15.19857 9.50186,-29.26366 21.05241,-38.94422 11.06184,-9.27098 24.63372,-14.22697 38.96027,-14.22697 6.89982,0 12.98063,0.92974 18.98348,2.90252 21.90367,7.19843 37.57817,25.83105 41.18355,48.95581 0.65969,4.23118 0.66014,13.22991 8e-4,17.45307 -4.15918,26.64398 -24.51175,47.08688 -50.97393,51.20026 -2.6487,0.41172 -11.76167,0.74846 -13.75834,0.50838 z m -10.84791,-52.49296 v -20.6375 h -6.87917 -6.87917 v 20.46111 c 0,11.25362 0.0794,20.54049 0.17639,20.6375 0.097,0.097 3.19264,0.17639 6.87917,0.17639 h 6.70278 z m 21.48784,7.73907 c 0.0752,-12.8174 0.0795,-12.90613 0.6789,-14.12274 0.75254,-1.52743 2.13216,-2.96696 3.57888,-3.73428 0.8769,-0.4651 1.55345,-0.58947 3.22625,-0.59309 1.8254,-0.004 2.28306,0.0932 3.32586,0.70629 1.4331,0.84251 2.41265,2.18772 3.04661,4.18392 0.40522,1.27591 0.47602,2.99612 0.57467,13.96119 l 0.11252,12.50598 6.78892,-0.0706 6.78892,-0.0706 0.0747,-10.84792 c 0.10901,-15.82494 -0.28114,-19.50659 -2.5183,-23.7639 -0.52374,-0.99668 -1.63272,-2.50325 -2.4644,-3.34795 -4.22306,-4.28914 -11.97355,-5.49408 -17.61124,-2.73796 -1.50433,0.73543 -3.97681,2.90223 -5.07757,4.44982 l -0.56457,0.79375 -0.008,-2.84428 -0.008,-2.84427 h -6.87917 -6.87917 v 20.6375 20.6375 h 6.86962 6.86961 z m -25.05001,-34.63851 c 2.56644,-0.87448 4.6205,-3.79535 4.6205,-6.57035 0,-2.37434 -1.67046,-5.18019 -3.70064,-6.21591 -3.12285,-1.59316 -8.00782,-0.90272 -9.96107,1.40788 -3.23133,3.82252 -1.83029,9.79998 2.67166,11.39845 1.49476,0.53073 4.78345,0.52037 6.36955,-0.0201 z"
       id="path1490"
       inkscape:connector-curvature="0" />
  </g>
</svg>
