<?xml version="1.0" encoding="UTF-8" standalone="no"?>
<!-- Created with Inkscape (http://www.inkscape.org/) -->

<svg
   xmlns:dc="http://purl.org/dc/elements/1.1/"
   xmlns:cc="http://creativecommons.org/ns#"
   xmlns:rdf="http://www.w3.org/1999/02/22-rdf-syntax-ns#"
   xmlns:svg="http://www.w3.org/2000/svg"
   xmlns="http://www.w3.org/2000/svg"
   xmlns:sodipodi="http://sodipodi.sourceforge.net/DTD/sodipodi-0.dtd"
   xmlns:inkscape="http://www.inkscape.org/namespaces/inkscape"
   width="48"
   height="48"
   viewBox="0 0 12.7 12.7"
   version="1.1"
   id="svg1539"
   inkscape:version="0.92.3 (2405546, 2018-03-11)"
   sodipodi:docname="github-icon.svg">
  <defs
     id="defs1533" />
  <sodipodi:namedview
     id="base"
     pagecolor="#ffffff"
     bordercolor="#666666"
     borderopacity="1.0"
     inkscape:pageopacity="0.0"
     inkscape:pageshadow="2"
     inkscape:zoom="5.12"
     inkscape:cx="16.287505"
     inkscape:cy="45.888813"
     inkscape:document-units="px"
     inkscape:current-layer="layer1"
     showgrid="false"
     inkscape:window-width="1920"
     inkscape:window-height="1017"
     inkscape:window-x="0"
     inkscape:window-y="0"
     inkscape:window-maximized="1"
     units="px" />
  <metadata
     id="metadata1536">
    <rdf:RDF>
      <cc:Work
         rdf:about="">
        <dc:format>image/svg+xml</dc:format>
        <dc:type
           rdf:resource="http://purl.org/dc/dcmitype/StillImage" />
        <dc:title></dc:title>
      </cc:Work>
    </rdf:RDF>
  </metadata>
  <g
     inkscape:label="Layer 1"
     inkscape:groupmode="layer"
     id="layer1"
     transform="translate(0,-284.3)">
    <path
       style="fill:#ffffff;stroke-width:0.02519883"
       d="m 4.2423997,296.29601 c -0.4001083,-0.16067 -0.4861467,-0.20122 -0.77984,-0.36754 -1.0654144,-0.60337 -1.9410518,-1.56975 -2.4888651,-2.7468 -0.20608207,-0.44279 -0.40108636,-1.10996 -0.45480296,-1.55601 -0.0162729,-0.13513 -0.0384361,-0.24569 -0.0492516,-0.24569 -0.0108154,0 -0.0196644,-0.28916 -0.0196644,-0.64257 0,-0.41158 0.009058,-0.64257 0.0251988,-0.64257 0.0138594,0 0.0251989,-0.0377 0.0251989,-0.0838 0,-0.28876 0.22060528,-1.13408 0.41546366,-1.59197 0.3912825,-0.91945 1.0058583,-1.73342 1.7768346,-2.35331 0.7493226,-0.60247 1.6801291,-1.03545 2.5821739,-1.20114 1.5008552,-0.27567 2.9399256,-0.0285 4.2136048,0.72378 1.2298587,0.72638 2.1867717,1.91626 2.6282337,3.26808 0.117759,0.3606 0.22714,0.81667 0.22714,0.94708 0,0.0354 0.01134,0.0645 0.0252,0.0645 0.03004,0 0.03578,1.72994 0.0058,1.74292 -0.01068,0.005 -0.03871,0.12179 -0.06229,0.26038 -0.113737,0.6684 -0.438762,1.46919 -0.854013,2.10411 -0.702583,1.07424 -1.6414105,1.85029 -2.7859207,2.30288 -0.3761654,0.14875 -0.4891121,0.16745 -0.6158037,0.10193 -0.1424624,-0.0737 -0.147868,-0.11591 -0.1488349,-1.16296 -9.629e-4,-1.03771 -0.018373,-1.22765 -0.1361433,-1.48489 -0.036265,-0.0792 -0.1065855,-0.19363 -0.1562673,-0.25426 -0.049682,-0.0606 -0.086227,-0.11364 -0.081212,-0.11781 0.00501,-0.004 0.1166628,-0.0219 0.2481059,-0.0394 0.5633477,-0.0751 1.0930697,-0.26926 1.4714455,-0.53927 0.480926,-0.34318 0.7675525,-0.83488 0.9144055,-1.56864 0.03404,-0.1701 0.04466,-0.34422 0.04435,-0.72759 -3.81e-4,-0.44042 -0.0074,-0.5294 -0.05581,-0.70557 -0.07275,-0.26472 -0.2247773,-0.57009 -0.3907854,-0.78494 l -0.133888,-0.17329 0.049166,-0.15086 c 0.038925,-0.11943 0.049657,-0.22696 0.051522,-0.51623 0.00246,-0.38033 -0.029877,-0.57176 -0.1399716,-0.82885 l -0.047398,-0.11069 -0.1820486,0.0146 c -0.1001276,0.008 -0.2557559,0.0388 -0.3458421,0.0685 -0.2351505,0.0774 -0.6393698,0.27399 -0.8777147,0.42689 l -0.2053165,0.1317 -0.2711464,-0.0637 c -0.4661202,-0.10948 -0.6468909,-0.12836 -1.2287023,-0.12836 -0.5791649,0 -0.7521796,0.0181 -1.2258425,0.12818 l -0.2682872,0.0624 -0.1852918,-0.11892 c -0.388451,-0.24932 -0.9662935,-0.48226 -1.2566919,-0.50661 -0.1704656,-0.0143 -0.1712207,-0.0141 -0.210372,0.0616 -0.1459457,0.28223 -0.2085064,0.87556 -0.1298424,1.23143 0.024171,0.10935 0.05401,0.21792 0.066309,0.24126 0.016954,0.0322 -0.01142,0.087 -0.1173295,0.22679 -0.174488,0.23027 -0.3228068,0.52694 -0.3945127,0.78912 -0.048367,0.17684 -0.055135,0.26501 -0.055129,0.71817 5e-6,0.43825 0.00845,0.55567 0.055676,0.77445 0.1493336,0.69175 0.4170462,1.14979 0.8738453,1.4951 0.1434046,0.1084 0.6180076,0.35008 0.8063626,0.41061 0.1690038,0.0543 0.5762933,0.13649 0.7798953,0.15735 0.090784,0.009 0.1650609,0.022 0.1650609,0.0281 0,0.006 -0.03938,0.0592 -0.087512,0.11798 -0.1136896,0.13874 -0.2103364,0.35221 -0.245803,0.54293 l -0.028306,0.1522 -0.1347465,0.0504 c -0.1883447,0.0705 -0.4645422,0.10883 -0.6896953,0.0958 -0.3742671,-0.0217 -0.6440637,-0.2104 -0.9400555,-0.65761 -0.225995,-0.34145 -0.5379685,-0.55407 -0.8607711,-0.58664 -0.3696215,-0.0373 -0.3817772,0.13472 -0.025904,0.36658 0.2101692,0.13693 0.4029496,0.3864 0.5560325,0.71953 0.063596,0.1384 0.129272,0.27998 0.1459476,0.31462 0.050138,0.10418 0.2782694,0.31831 0.4104088,0.38523 0.1856705,0.094 0.3538173,0.13679 0.6773481,0.17227 0.2663716,0.0292 0.5432684,0.0173 0.8006773,-0.0345 0.024725,-0.005 0.033305,0.12529 0.038577,0.5857 0.00733,0.64031 -0.0014,0.69666 -0.1210925,0.78189 -0.1122364,0.0799 -0.251334,0.0625 -0.5912543,-0.074 z"
       id="path1419"
       inkscape:connector-curvature="0" />
  </g>
</svg>
