<?xml version="1.0" encoding="UTF-8" standalone="no"?>
<!-- Created with Inkscape (http://www.inkscape.org/) -->

<svg
   xmlns:dc="http://purl.org/dc/elements/1.1/"
   xmlns:cc="http://creativecommons.org/ns#"
   xmlns:rdf="http://www.w3.org/1999/02/22-rdf-syntax-ns#"
   xmlns:svg="http://www.w3.org/2000/svg"
   xmlns="http://www.w3.org/2000/svg"
   xmlns:sodipodi="http://sodipodi.sourceforge.net/DTD/sodipodi-0.dtd"
   xmlns:inkscape="http://www.inkscape.org/namespaces/inkscape"
   width="48"
   height="48"
   viewBox="0 0 12.7 12.7"
   version="1.1"
   id="svg1539"
   inkscape:version="0.92.3 (2405546, 2018-03-11)"
   sodipodi:docname="twitter-icon.svg">
  <defs
     id="defs1533" />
  <sodipodi:namedview
     id="base"
     pagecolor="#ffffff"
     bordercolor="#666666"
     borderopacity="1.0"
     inkscape:pageopacity="0.0"
     inkscape:pageshadow="2"
     inkscape:zoom="7.2407734"
     inkscape:cx="-38.778366"
     inkscape:cy="5.9557148"
     inkscape:document-units="px"
     inkscape:current-layer="layer1"
     showgrid="false"
     inkscape:window-width="1920"
     inkscape:window-height="1017"
     inkscape:window-x="0"
     inkscape:window-y="0"
     inkscape:window-maximized="1"
     units="px" />
  <metadata
     id="metadata1536">
    <rdf:RDF>
      <cc:Work
         rdf:about="">
        <dc:format>image/svg+xml</dc:format>
        <dc:type
           rdf:resource="http://purl.org/dc/dcmitype/StillImage" />
        <dc:title></dc:title>
      </cc:Work>
    </rdf:RDF>
  </metadata>
  <g
     inkscape:label="Layer 1"
     inkscape:groupmode="layer"
     id="layer1"
     transform="translate(0,-284.3)">
    <path
       style="fill:#ffffff;stroke-width:0.03106339"
       d="m 5.4579119,296.78733 c -2.3005348,-0.34893 -4.1776318,-1.87566 -4.99473746,-4.06247 -0.39953377,-1.06926 -0.4756521,-2.43022 -0.201589,-3.60433 0.25622693,-1.09771 0.86747936,-2.16719 1.70972386,-2.99147 1.0109874,-0.9894 2.2428932,-1.58348 3.6360169,-1.75341 0.4074244,-0.0496 1.4392733,-0.0227 1.8264079,0.0478 1.2348526,0.22479 2.3522085,0.80015 3.2555359,1.67638 1.038516,1.00737 1.659223,2.22757 1.857446,3.65144 0.06416,0.46086 0.04627,1.48898 -0.03351,1.92593 -0.168117,0.9208 -0.528173,1.76564 -1.102243,2.58632 -0.263585,0.37682 -1.014104,1.12734 -1.390918,1.39091 -0.8203474,0.57386 -1.6629851,0.93306 -2.5863153,1.10253 -0.3978969,0.0731 -1.5753129,0.0912 -1.9758221,0.0304 z m 0.4112472,-3.42906 c 0.8368896,-0.16228 1.5050565,-0.52714 2.0999922,-1.14688 0.7003968,-0.72959 1.1067906,-1.6717 1.1618044,-2.69332 l 0.020083,-0.37294 0.138857,-0.10851 c 0.1315934,-0.10289 0.5466386,-0.5584 0.526823,-0.57821 -0.00511,-0.005 -0.1135397,0.0237 -0.2409419,0.0642 -0.1274051,0.0404 -0.3015358,0.0835 -0.3869612,0.0958 l -0.1553161,0.0223 0.1439088,-0.11117 c 0.14552,-0.11248 0.3184877,-0.3263 0.4112132,-0.50842 0.074221,-0.14574 0.062657,-0.16957 -0.050342,-0.10356 -0.1329549,0.0776 -0.3995714,0.18105 -0.6047612,0.2345 l -0.1649533,0.043 -0.1984283,-0.1502 c -0.3221676,-0.24386 -0.7340159,-0.3489 -1.1053398,-0.28194 -0.4228926,0.0763 -0.8091806,0.3472 -1.0196796,0.71515 -0.1315521,0.22997 -0.2055078,0.57084 -0.1793163,0.8265 l 0.020317,0.1983 -0.086289,-1.1e-4 c -0.1935209,-2.4e-4 -0.695697,-0.10223 -0.9921025,-0.20135 -0.6076222,-0.20325 -1.1537939,-0.53963 -1.5988583,-0.98469 -0.1522013,-0.15218 -0.2900535,-0.26849 -0.3063376,-0.25843 -0.016277,0.01 -0.058818,0.11199 -0.09452,0.22666 -0.1700403,0.54581 -0.00749,1.14352 0.41039,1.50907 l 0.1530647,0.13383 -0.182721,-0.025 c -0.1004965,-0.0132 -0.249833,-0.0538 -0.3318591,-0.0888 l -0.1491377,-0.064 0.020201,0.15235 c 0.073814,0.55645 0.4600594,1.05453 0.9334762,1.20375 0.093489,0.0294 0.1627963,0.0652 0.1540159,0.0794 -0.00878,0.0149 -0.1409478,0.0258 -0.2937016,0.0258 -0.1527553,0 -0.2777378,0.008 -0.2777378,0.0165 0,0.0534 0.1088302,0.26048 0.2075873,0.39502 0.2143955,0.29206 0.4928459,0.45137 1.003885,0.57436 l 0.1087211,0.0261 -0.2603829,0.16029 c -0.4682425,0.28839 -0.9283572,0.41852 -1.4994116,0.42408 -0.1819834,0.002 -0.3147791,0.0149 -0.295102,0.0278 0.1040067,0.0716 0.5921495,0.30381 0.7812984,0.3716 0.6621003,0.23727 1.4514655,0.29201 2.1785639,0.15102 z"
       id="path1449"
       inkscape:connector-curvature="0" />
  </g>
</svg>
