<?xml version="1.0" encoding="UTF-8" standalone="no"?>
<!-- Created with Inkscape (http://www.inkscape.org/) -->

<svg
   xmlns:dc="http://purl.org/dc/elements/1.1/"
   xmlns:cc="http://creativecommons.org/ns#"
   xmlns:rdf="http://www.w3.org/1999/02/22-rdf-syntax-ns#"
   xmlns:svg="http://www.w3.org/2000/svg"
   xmlns="http://www.w3.org/2000/svg"
   xmlns:sodipodi="http://sodipodi.sourceforge.net/DTD/sodipodi-0.dtd"
   xmlns:inkscape="http://www.inkscape.org/namespaces/inkscape"
   width="48"
   height="48"
   viewBox="0 0 12.7 12.7"
   version="1.1"
   id="svg1539"
   inkscape:version="0.92.3 (2405546, 2018-03-11)"
   sodipodi:docname="instagram-icon.svg">
  <defs
     id="defs1533" />
  <sodipodi:namedview
     id="base"
     pagecolor="#ffffff"
     bordercolor="#666666"
     borderopacity="1.0"
     inkscape:pageopacity="0.0"
     inkscape:pageshadow="2"
     inkscape:zoom="10.24"
     inkscape:cx="14.405815"
     inkscape:cy="19.611086"
     inkscape:document-units="px"
     inkscape:current-layer="layer1"
     showgrid="false"
     inkscape:window-width="1920"
     inkscape:window-height="1017"
     inkscape:window-x="0"
     inkscape:window-y="0"
     inkscape:window-maximized="1"
     units="px" />
  <metadata
     id="metadata1536">
    <rdf:RDF>
      <cc:Work
         rdf:about="">
        <dc:format>image/svg+xml</dc:format>
        <dc:type
           rdf:resource="http://purl.org/dc/dcmitype/StillImage" />
        <dc:title></dc:title>
      </cc:Work>
    </rdf:RDF>
  </metadata>
  <g
     inkscape:label="Layer 1"
     inkscape:groupmode="layer"
     id="layer1"
     transform="translate(0,-284.3)">
    <path
       style="fill:#ffffff;stroke-width:0.05468099"
       d="m 5.1137015,296.72354 c -1.28837,-0.27591 -2.3658833,-0.88027 -3.2815839,-1.84056 -0.84732449,-0.88857 -1.38524833,-1.94594 -1.61637689,-3.17719 -0.13450493,-0.71654 -0.0857647,-1.99101 0.10362433,-2.70957 0.62102308,-2.35621 2.59745116,-4.16269 5.01306216,-4.58201 0.5254442,-0.0913 1.5510949,-0.0914 2.0778762,-1.6e-4 2.5988316,0.44925 4.6167006,2.43134 5.1218616,5.03106 0.120807,0.62171 0.119671,1.68836 -0.0025,2.31754 -0.489886,2.52358 -2.477839,4.50265 -5.0042846,4.98191 -0.6285737,0.11928 -1.8050196,0.10909 -2.4117079,-0.0209 z m 4.1028653,-3.03785 c 0.3291428,-0.1702 0.3262959,-0.14326 0.3262959,-3.08855 0,-2.9453 0.00285,-2.91834 -0.3262959,-3.08856 -0.2404123,-0.12437 -5.4499908,-0.12437 -5.6904027,0 -0.3291678,0.17023 -0.3262958,0.14302 -0.3262958,3.09108 0,2.38094 0.010106,2.70444 0.088737,2.83753 0.1992849,0.33736 0.1157967,0.3284 3.0718052,0.32999 2.3046325,10e-4 2.7190268,-0.0102 2.8561565,-0.0815 z m -5.3072004,-0.76817 c -0.029574,-0.0777 -0.053326,-0.75973 -0.053326,-1.53107 v -1.3908 l 0.2870748,-1e-5 0.2870744,-2e-5 v 0.5605 c 0,0.50405 0.01552,0.59209 0.1541121,0.87432 0.1963504,0.39986 0.5539051,0.75742 0.9537565,0.95377 0.2773404,0.13619 0.374249,0.1541 0.8333071,0.1541 0.4487053,0 0.5619023,-0.0199 0.8309591,-0.146 0.3973547,-0.18626 0.7779513,-0.56686 0.9642068,-0.96422 0.1284702,-0.27407 0.1460098,-0.37882 0.1460098,-0.87199 v -0.5605 l 0.2870744,2e-5 0.2870748,3e-5 v 1.4253 c 0,0.87793 -0.021736,1.46592 -0.056605,1.53106 -0.054647,0.10208 -0.1398178,0.10577 -2.4619975,0.10577 H 3.9626955 Z m 1.8202005,-1.22798 c -0.4073803,-0.23363 -0.6146479,-0.60329 -0.6153504,-1.09748 -8.73e-4,-0.6358 0.3824368,-1.11667 1.000454,-1.25499 0.879279,-0.19677 1.6991418,0.61603 1.5151893,1.50213 -0.1793519,0.86392 -1.1327259,1.29055 -1.9002929,0.85034 z m 2.0654282,-2.78391 c -0.088177,-0.16476 -0.069699,-0.72611 0.028517,-0.86634 0.074723,-0.10666 0.1338095,-0.12157 0.4836549,-0.12157 0.5109206,0 0.5795235,0.0641 0.5795235,0.54104 0,0.52551 -0.028123,0.55258 -0.5741492,0.55258 -0.3997539,0 -0.4684549,-0.014 -0.5175459,-0.10577 z"
       id="path1464"
       inkscape:connector-curvature="0" />
  </g>
</svg>
