<?xml version="1.0" encoding="UTF-8" standalone="no"?>
<!-- Created with Inkscape (http://www.inkscape.org/) -->

<svg
   xmlns:dc="http://purl.org/dc/elements/1.1/"
   xmlns:cc="http://creativecommons.org/ns#"
   xmlns:rdf="http://www.w3.org/1999/02/22-rdf-syntax-ns#"
   xmlns:svg="http://www.w3.org/2000/svg"
   xmlns="http://www.w3.org/2000/svg"
   xmlns:sodipodi="http://sodipodi.sourceforge.net/DTD/sodipodi-0.dtd"
   xmlns:inkscape="http://www.inkscape.org/namespaces/inkscape"
   width="48"
   height="48"
   viewBox="0 0 12.7 12.7"
   version="1.1"
   id="svg1539"
   inkscape:version="0.92.3 (2405546, 2018-03-11)"
   sodipodi:docname="language_w.svg">
  <defs
     id="defs1533" />
  <sodipodi:namedview
     id="base"
     pagecolor="#ffffff"
     bordercolor="#666666"
     borderopacity="1.0"
     inkscape:pageopacity="0.0"
     inkscape:pageshadow="2"
     inkscape:zoom="1.8101934"
     inkscape:cx="-84.293631"
     inkscape:cy="84.486242"
     inkscape:document-units="px"
     inkscape:current-layer="layer1"
     showgrid="false"
     inkscape:window-width="1920"
     inkscape:window-height="1017"
     inkscape:window-x="0"
     inkscape:window-y="0"
     inkscape:window-maximized="1"
     units="px" />
  <metadata
     id="metadata1536">
    <rdf:RDF>
      <cc:Work
         rdf:about="">
        <dc:format>image/svg+xml</dc:format>
        <dc:type
           rdf:resource="http://purl.org/dc/dcmitype/StillImage" />
        <dc:title></dc:title>
      </cc:Work>
    </rdf:RDF>
  </metadata>
  <g
     inkscape:label="Layer 1"
     inkscape:groupmode="layer"
     id="layer1"
     transform="translate(0,-284.3)">
    <path
       style="fill:#000000;stroke-width:0.00969951"
       d="m 6.0756846,295.88362 c -0.605841,-0.0718 -1.168934,-0.23593 -1.692566,-0.49332 -0.180912,-0.0889 -0.417053,-0.22663 -0.443752,-0.25876 -0.02288,-0.0276 -0.02276,-0.11246 2.15e-4,-0.14082 0.03535,-0.0436 0.09134,-0.054 0.152836,-0.0283 0.01849,0.008 0.08086,0.0426 0.138604,0.0775 0.224215,0.13546 0.620516,0.31048 0.923208,0.40772 0.745691,0.23956 1.473753,0.2894 2.19209,0.15007 0.485333,-0.0941 1.014125,-0.29816 1.441961,-0.55634 l 0.108278,-0.0653 -0.121561,-0.20052 c -0.06686,-0.11029 -0.126027,-0.20609 -0.131484,-0.21288 -0.0055,-0.007 -0.007,-0.0152 -0.0035,-0.0187 0.0066,-0.007 0.947411,0.0623 0.955094,0.07 0.0046,0.005 -0.31726,0.94534 -0.327543,0.95745 -0.0033,0.004 -0.04608,-0.0595 -0.09517,-0.14064 -0.04908,-0.0812 -0.10356,-0.17001 -0.121057,-0.19737 l -0.03181,-0.0498 -0.07275,0.0411 c -0.191403,0.10823 -0.241792,0.13549 -0.358787,0.19412 -0.398016,0.19944 -0.902468,0.36412 -1.307978,0.42698 -0.327571,0.0508 -0.362319,0.0532 -0.736786,0.0521 -0.23302,-6.8e-4 -0.394485,-0.006 -0.467505,-0.0143 z m -3.964486,-1.33739 c -0.01723,-0.008 -0.04013,-0.0283 -0.05089,-0.0459 -0.0195,-0.032 -0.01955,-0.0406 -0.01959,-3.28414 -3.9e-5,-3.50923 -0.0032,-3.29648 0.04956,-3.33016 0.01273,-0.008 0.242478,-0.0887 0.510548,-0.17898 l 0.487401,-0.16421 v -1.14802 c 0,-1.0894 8.67e-4,-1.14769 0.01697,-1.14143 0.0093,0.004 0.765328,0.27063 1.679982,0.59335 l 1.663009,0.58677 0.05381,-0.0206 c 0.02959,-0.0113 0.226214,-0.079 0.436936,-0.15038 0.210722,-0.0714 0.466062,-0.15805 0.567421,-0.19262 0.10136,-0.0346 0.415625,-0.14133 0.698365,-0.23726 0.282741,-0.0959 0.80215,-0.27251 1.154243,-0.39242 1.0610974,-0.36136 1.0057554,-0.34662 1.0679164,-0.28446 l 0.03298,0.033 v 1.28073 c 0,0.9653 0.0028,1.28246 0.01132,1.28773 0.0062,0.004 0.205912,0.069 0.443753,0.14476 l 0.432437,0.13776 0.0024,3.25006 0.0024,3.25006 -0.04124,-0.0137 c -0.03625,-0.012 -0.788483,-0.25166 -1.064536,-0.3391 -0.133955,-0.0424 -1.9606124,-0.62446 -2.5121744,-0.80045 -0.237396,-0.0758 -0.571301,-0.18206 -0.742013,-0.23624 l -0.310384,-0.0985 -0.116394,0.0413 c -0.439953,0.15606 -4.315135,1.44385 -4.39873,1.46177 -0.01334,0.003 -0.03835,-0.001 -0.05558,-0.009 z m 2.27192,-0.97431 2.095095,-0.69714 0.0024,-3.10291 0.0024,-3.10291 -2.102384,0.69918 -2.102385,0.69917 -0.0024,3.10105 c -0.0013,1.70557 8.41e-4,3.10096 0.0049,3.10087 0.004,-9e-5 0.950083,-0.31388 2.102384,-0.69731 z m -1.424948,-0.9931 c 0.01649,-0.014 0.08704,-0.0899 0.156785,-0.16886 0.325549,-0.36843 0.458485,-0.53761 0.825379,-1.05041 0.335817,-0.46938 0.458913,-0.66202 0.61358,-0.96026 0.157923,-0.30451 0.396626,-0.78852 0.396626,-0.80422 0,-0.006 -0.0063,-0.0105 -0.01395,-0.0105 -0.02103,0 -0.287973,0.0783 -0.490427,0.1439 -0.09869,0.032 -0.273284,0.0831 -0.387981,0.11359 -0.114697,0.0305 -0.220542,0.0616 -0.235213,0.069 -0.02601,0.0132 -0.03198,0.03 -0.02782,0.0784 0.0033,0.0383 -0.01806,0.0613 -0.08814,0.0949 -0.0926,0.0444 -0.155579,0.0558 -0.283216,0.0512 -0.120178,-0.004 -0.158355,-0.018 -0.229928,-0.0827 -0.04931,-0.0446 -0.06488,-0.0749 -0.07272,-0.1416 l -0.0063,-0.0532 0.05215,-0.0101 c 0.02868,-0.006 0.08488,-0.015 0.124894,-0.0211 0.145543,-0.0219 0.584045,-0.15353 1.028148,-0.30853 0.15204,-0.0531 0.311355,-0.10611 0.354032,-0.11787 0.0496,-0.0137 0.151378,-0.0595 0.282085,-0.12686 0.197368,-0.1018 0.43106,-0.20086 0.496301,-0.21037 l 0.03152,-0.005 -1.94e-4,0.052 c -5.08e-4,0.13537 -0.0073,0.1535 -0.207168,0.55481 -0.190998,0.38346 -0.285895,0.5541 -0.487645,0.87686 -0.06083,0.0973 -0.112687,0.18243 -0.115234,0.18914 -0.003,0.008 0.02082,0.0225 0.06575,0.0407 0.03871,0.0157 0.166403,0.0709 0.283767,0.12272 0.173976,0.0768 0.816892,0.34746 0.879793,0.3704 0.0091,0.003 0.02495,0.0226 0.03523,0.0429 0.02405,0.0474 0.05891,0.1878 0.06213,0.25024 0.0022,0.0433 2.55e-4,0.0488 -0.01859,0.0515 -0.05649,0.008 -0.350292,-0.116 -0.584914,-0.24695 -0.247252,-0.138 -0.291231,-0.16706 -0.519888,-0.34356 -0.224408,-0.17322 -0.262568,-0.20061 -0.268757,-0.19289 -0.0019,0.002 -0.05091,0.0743 -0.108795,0.15963 -0.411359,0.60661 -1.031596,1.35687 -1.277269,1.54502 -0.06497,0.0498 -0.09237,0.0586 -0.206736,0.0668 l -0.0873,0.006 0.02998,-0.0254 z m 1.041132,-3.44335 c -0.108433,-0.0309 -0.22939,-0.13268 -0.279298,-0.23504 -0.03005,-0.0616 -0.0577,-0.15509 -0.04858,-0.16421 0.0025,-0.002 0.02615,0.002 0.05258,0.0108 0.02957,0.009 0.08534,0.0155 0.14504,0.016 0.09125,6.4e-4 0.10791,-0.003 0.281286,-0.0552 0.26758,-0.0811 0.434605,-0.12227 0.496051,-0.12227 0.04723,0 0.05721,0.004 0.08075,0.0288 0.01477,0.0158 0.02962,0.0426 0.03299,0.0594 0.03065,0.15324 -0.05473,0.27211 -0.274477,0.38213 -0.140389,0.0703 -0.380969,0.10971 -0.486338,0.0797 z m 6.4179274,3.40014 c -0.0028,-0.009 -0.164894,-0.59312 -0.360145,-1.29731 -0.6608374,-2.38334 -0.7317584,-2.63699 -0.7391924,-2.64369 -0.0095,-0.009 -0.595757,-0.18543 -0.600152,-0.18104 -0.0018,0.002 -0.126006,0.30422 -0.275973,0.67201 -0.860157,2.10948 -1.037976,2.54806 -1.034496,2.55154 0.01118,0.0112 0.612896,0.18717 0.618452,0.18088 0.0036,-0.004 0.06671,-0.15279 0.140211,-0.33045 0.07795,-0.18843 0.138129,-0.32142 0.144414,-0.31917 0.0059,0.002 0.290119,0.0882 0.631542,0.19127 0.341423,0.10307 0.624496,0.19062 0.629052,0.19456 0.0046,0.004 0.05744,0.18669 0.117528,0.4061 0.06008,0.21942 0.110917,0.40057 0.112961,0.40258 0.0039,0.004 0.5992394,0.18713 0.6130134,0.18876 0.0044,5.1e-4 0.0056,-0.007 0.0028,-0.016 z m -1.4704894,-1.84274 c -0.221392,-0.0672 -0.403885,-0.12324 -0.405541,-0.12444 -0.0065,-0.005 0.447483,-1.08979 0.454226,-1.08562 0.004,0.002 0.0093,0.0143 0.01179,0.0264 0.0034,0.0161 0.328149,1.1715 0.362675,1.29018 0.003,0.0102 -1.51e-4,0.0167 -0.0078,0.0163 -0.007,-3.4e-4 -0.193916,-0.0556 -0.415308,-0.12288 z m 1.2757554,-5.28694 c -0.0026,-0.003 -0.165169,0.0498 -0.3613474,0.11628 -2.293675,0.77772 -3.096607,1.0514 -3.096569,1.05548 3e-5,0.003 0.778006,0.25212 1.728847,0.55433 l 1.7288004,0.54949 0.0025,-1.13546 c 0.0014,-0.6245 3.67e-4,-1.13756 -0.0022,-1.14012 z"
       id="path1596"
       inkscape:connector-curvature="0" />
  </g>
</svg>
