<?xml version="1.0" encoding="UTF-8" standalone="no"?>
<!-- Generator: Adobe Illustrator 24.1.1, SVG Export Plug-In . SVG Version: 6.00 Build 0)  -->

<svg
   xmlns:dc="http://purl.org/dc/elements/1.1/"
   xmlns:cc="http://creativecommons.org/ns#"
   xmlns:rdf="http://www.w3.org/1999/02/22-rdf-syntax-ns#"
   xmlns:svg="http://www.w3.org/2000/svg"
   xmlns="http://www.w3.org/2000/svg"
   xmlns:sodipodi="http://sodipodi.sourceforge.net/DTD/sodipodi-0.dtd"
   xmlns:inkscape="http://www.inkscape.org/namespaces/inkscape"
   version="1.1"
   id="Layer_1"
   x="0px"
   y="0px"
   viewBox="0 0 60 60"
   xml:space="preserve"
   sodipodi:docname="php_icon.svg"
   inkscape:version="0.92.3 (2405546, 2018-03-11)"
   width="60"
   height="60"><metadata
   id="metadata1507"><rdf:RDF><cc:Work
       rdf:about=""><dc:format>image/svg+xml</dc:format><dc:type
         rdf:resource="http://purl.org/dc/dcmitype/StillImage" /><dc:title></dc:title></cc:Work></rdf:RDF></metadata><defs
   id="defs1505" /><sodipodi:namedview
   pagecolor="#ffffff"
   bordercolor="#666666"
   borderopacity="1"
   objecttolerance="10"
   gridtolerance="10"
   guidetolerance="10"
   inkscape:pageopacity="0"
   inkscape:pageshadow="2"
   inkscape:window-width="1920"
   inkscape:window-height="1080"
   id="namedview1503"
   showgrid="false"
   inkscape:zoom="0.38448931"
   inkscape:cx="340.17264"
   inkscape:cy="836.01841"
   inkscape:window-x="0"
   inkscape:window-y="0"
   inkscape:window-maximized="0"
   inkscape:current-layer="Layer_1"
   width="60px" />
<style
   type="text/css"
   id="style2">
	.st0{fill:url(#SVGID_1_);}
	.st1{fill:url(#SVGID_2_);}
	.st2{fill:url(#SVGID_3_);}
	.st3{fill:url(#SVGID_4_);}
	.st4{fill:url(#SVGID_5_);}
	.st5{fill:url(#SVGID_6_);}
	.st6{fill:url(#SVGID_7_);}
	.st7{fill:url(#SVGID_8_);}
	.st8{fill:url(#SVGID_9_);}
	.st9{fill:url(#SVGID_10_);}
	.st10{fill:url(#SVGID_11_);}
	.st11{fill:url(#SVGID_12_);}
	.st12{fill:url(#SVGID_13_);}
	.st13{fill:url(#SVGID_14_);}
	.st14{fill:none;stroke:url(#SVGID_15_);stroke-miterlimit:10;}
	.st15{fill:url(#SVGID_16_);}
	.st16{fill:none;stroke:url(#SVGID_17_);stroke-miterlimit:10;}
	.st17{fill:url(#SVGID_18_);}
	.st18{fill:none;stroke:url(#SVGID_19_);stroke-miterlimit:10;}
	.st19{fill:url(#SVGID_20_);}
	.st20{fill:none;stroke:url(#SVGID_21_);stroke-miterlimit:10;}
	.st21{fill:url(#SVGID_22_);}
	.st22{fill:url(#SVGID_23_);}
	.st23{fill:url(#SVGID_24_);}
	.st24{fill:url(#SVGID_25_);}
	.st25{fill:url(#SVGID_26_);}
	.st26{fill:url(#SVGID_27_);}
	.st27{fill:#FFFFFF;}
	.st28{fill:#808184;}
	.st29{fill:url(#SVGID_28_);}
	.st30{fill:url(#SVGID_29_);}
	.st31{fill:url(#SVGID_30_);}
	.st32{fill:url(#SVGID_31_);}
	.st33{fill:url(#SVGID_32_);}
	.st34{fill:url(#SVGID_33_);}
	.st35{fill:url(#SVGID_34_);}
	.st36{fill:url(#SVGID_35_);}
	.st37{fill:url(#SVGID_36_);}
	.st38{fill:url(#SVGID_37_);}
	.st39{fill:url(#SVGID_38_);}
	.st40{fill:url(#SVGID_39_);}
	.st41{fill:url(#Path_33_2_);}
	.st42{fill:#6D6E71;}
	.st43{fill:url(#Path_41_2_);}
	.st44{fill:#FFFFFF;stroke:#707070;stroke-miterlimit:10;}
	.st45{fill:url(#Path_48_2_);}
	.st46{fill:url(#Path_49_2_);}
	.st47{fill:url(#Path_130_2_);}
	.st48{fill:url(#Path_131_2_);}
	.st49{fill:url(#Path_132_2_);}
	.st50{fill:url(#Path_37_2_);}
	.st51{fill:url(#SVGID_40_);}
	.st52{fill:url(#SVGID_41_);}
	.st53{fill:url(#SVGID_42_);}
	.st54{fill:url(#SVGID_43_);}
	.st55{fill:url(#SVGID_44_);}
	.st56{fill:url(#SVGID_45_);}
	.st57{fill:url(#SVGID_46_);}
	.st58{fill:url(#SVGID_47_);}
	.st59{fill:url(#SVGID_48_);}
	.st60{fill:url(#SVGID_49_);}
	.st61{fill:url(#SVGID_50_);}
	.st62{fill:url(#SVGID_51_);}
	.st63{fill:url(#SVGID_52_);}
	.st64{fill:url(#SVGID_53_);}
	.st65{fill:url(#SVGID_54_);}
	.st66{fill:url(#SVGID_55_);}
	.st67{fill:url(#SVGID_56_);}
	.st68{fill:url(#SVGID_57_);}
	.st69{fill:url(#SVGID_58_);}
	.st70{fill:url(#SVGID_59_);}
	.st71{fill:url(#SVGID_60_);}
	.st72{fill:url(#SVGID_61_);}
	.st73{fill:url(#SVGID_62_);}
	.st74{fill:url(#SVGID_63_);}
	.st75{fill:url(#SVGID_64_);}
	.st76{fill:url(#SVGID_65_);}
	.st77{fill:url(#SVGID_66_);}
	.st78{fill:url(#SVGID_67_);}
	.st79{fill:url(#SVGID_68_);}
	.st80{fill:url(#SVGID_69_);}
	.st81{fill:url(#SVGID_70_);}
	.st82{fill:url(#SVGID_71_);}
	.st83{fill:url(#SVGID_72_);}
	.st84{fill:url(#SVGID_73_);}
	.st85{fill:url(#SVGID_74_);}
	.st86{fill:url(#SVGID_75_);}
	.st87{fill:url(#SVGID_76_);}
	.st88{fill:url(#SVGID_77_);}
	.st89{fill:url(#SVGID_78_);}
	.st90{fill:url(#SVGID_79_);}
	.st91{fill:url(#SVGID_80_);}
	.st92{fill:url(#SVGID_81_);}
	.st93{fill:url(#SVGID_82_);}
	.st94{fill:url(#SVGID_83_);}
	.st95{fill:url(#SVGID_84_);}
	.st96{fill:url(#SVGID_85_);}
	.st97{fill:url(#SVGID_86_);}
	.st98{fill:url(#SVGID_87_);}
	.st99{fill:url(#SVGID_88_);}
	.st100{fill:url(#SVGID_89_);}
	.st101{fill:url(#SVGID_90_);}
	.st102{fill:url(#SVGID_91_);}
	.st103{fill:url(#SVGID_92_);}
	.st104{fill:url(#SVGID_93_);}
	.st105{fill:url(#SVGID_94_);}
	.st106{fill:url(#SVGID_95_);}
	.st107{fill:url(#SVGID_96_);}
	.st108{fill:url(#SVGID_97_);}
	.st109{fill:url(#SVGID_98_);}
	.st110{fill:url(#SVGID_99_);}
	.st111{fill:url(#SVGID_100_);}
	.st112{fill:url(#SVGID_101_);}
	.st113{fill:url(#SVGID_102_);}
	.st114{fill:url(#SVGID_103_);}
	.st115{fill:none;stroke:url(#SVGID_104_);stroke-miterlimit:10;}
	.st116{fill:url(#SVGID_105_);}
	.st117{fill:none;stroke:url(#SVGID_106_);stroke-miterlimit:10;}
	.st118{fill:url(#SVGID_107_);}
	.st119{fill:none;stroke:url(#SVGID_108_);stroke-miterlimit:10;}
	.st120{fill:url(#SVGID_109_);}
	.st121{fill:none;stroke:url(#SVGID_110_);stroke-miterlimit:10;}
	.st122{fill:url(#SVGID_111_);}
	.st123{fill:url(#SVGID_112_);}
	.st124{fill:url(#SVGID_113_);}
	.st125{fill:url(#SVGID_114_);}
	.st126{fill:url(#SVGID_115_);}
	.st127{fill:url(#SVGID_116_);}
	.st128{fill:url(#SVGID_117_);}
	.st129{fill:url(#SVGID_118_);}
	.st130{fill:url(#SVGID_119_);}
	.st131{fill:url(#SVGID_120_);}
	.st132{fill:url(#SVGID_121_);}
	.st133{fill:url(#SVGID_122_);}
	.st134{fill:url(#SVGID_123_);}
	.st135{fill:url(#SVGID_124_);}
	.st136{fill:url(#SVGID_125_);}
	.st137{fill:url(#SVGID_126_);}
	.st138{fill:url(#SVGID_127_);}
	.st139{fill:url(#SVGID_128_);}
	.st140{fill:url(#Path_33_3_);}
	.st141{fill:url(#Path_41_3_);}
	.st142{fill:url(#Path_48_3_);}
	.st143{fill:url(#Path_49_3_);}
	.st144{fill:url(#Path_130_3_);}
	.st145{fill:url(#Path_131_3_);}
	.st146{fill:url(#Path_132_3_);}
	.st147{fill:url(#Path_37_3_);}
	.st148{fill:url(#SVGID_129_);}
	.st149{fill:url(#SVGID_130_);}
	.st150{fill:url(#SVGID_131_);}
	.st151{fill:url(#SVGID_132_);}
	.st152{fill:url(#SVGID_133_);}
	.st153{fill:url(#SVGID_134_);}
	.st154{fill:url(#SVGID_135_);}
	.st155{fill:url(#SVGID_136_);}
	.st156{fill:url(#SVGID_137_);}
	.st157{fill:url(#SVGID_138_);}
	.st158{fill:url(#SVGID_139_);}
	.st159{fill:url(#SVGID_140_);}
	.st160{fill:url(#SVGID_141_);}
	.st161{fill:url(#SVGID_142_);}
	.st162{fill:url(#SVGID_143_);}
	.st163{fill:url(#SVGID_144_);}
	.st164{fill:url(#SVGID_145_);}
	.st165{fill:url(#SVGID_146_);}
	.st166{fill:url(#SVGID_147_);}
	.st167{fill:url(#SVGID_148_);}
	.st168{fill:url(#SVGID_149_);}
	.st169{fill:url(#SVGID_150_);}
	.st170{fill:url(#SVGID_151_);}
	.st171{fill:url(#SVGID_152_);}
	.st172{fill:url(#SVGID_153_);}
	.st173{fill:url(#SVGID_154_);}
	.st174{fill:url(#SVGID_155_);}
	.st175{fill:url(#SVGID_156_);}
	.st176{fill:url(#SVGID_157_);}
	.st177{fill:url(#SVGID_158_);}
	.st178{fill:url(#SVGID_159_);}
	.st179{fill:url(#SVGID_160_);}
	.st180{fill:url(#SVGID_161_);}
	.st181{fill:url(#SVGID_162_);}
	.st182{fill:url(#SVGID_163_);}
	.st183{fill:url(#SVGID_164_);}
	.st184{fill:url(#SVGID_165_);}
	.st185{fill:url(#SVGID_166_);}
	.st186{fill:url(#SVGID_167_);}
	.st187{fill:url(#SVGID_168_);}
	.st188{fill:url(#SVGID_169_);}
	.st189{fill:url(#SVGID_170_);}
	.st190{fill:url(#SVGID_171_);}
	.st191{fill:url(#SVGID_172_);}
	.st192{fill:url(#SVGID_173_);}
	.st193{fill:url(#SVGID_174_);}
	.st194{fill:url(#SVGID_175_);}
	.st195{fill:url(#SVGID_176_);}
	.st196{fill:url(#SVGID_177_);}
	.st197{fill:url(#SVGID_178_);}
</style>

<linearGradient
   id="SVGID_3_"
   gradientUnits="userSpaceOnUse"
   x1="134.9404"
   y1="-200.89011"
   x2="199.14"
   y2="-200.89011"
   gradientTransform="translate(0,-1020)">
	<stop
   offset="0"
   style="stop-color:#A8A8A8"
   id="stop20" />
	<stop
   offset="1"
   style="stop-color:#333333"
   id="stop22" />
</linearGradient>









<linearGradient
   id="SVGID_23_"
   gradientUnits="userSpaceOnUse"
   x1="993.52643"
   y1="-201.06329"
   x2="1059.3036"
   y2="-201.06329"
   gradientTransform="translate(0,-1020)">
	<stop
   offset="0"
   style="stop-color:#A8A8A8"
   id="stop184" />
	<stop
   offset="1"
   style="stop-color:#333333"
   id="stop186" />
</linearGradient>




<linearGradient
   id="SVGID_37_"
   gradientUnits="userSpaceOnUse"
   x1="506.4281"
   y1="-98.140297"
   x2="557.09857"
   y2="-98.140297">
	<stop
   offset="0"
   style="stop-color:#A8A8A8"
   id="stop298" />
	<stop
   offset="1"
   style="stop-color:#333333"
   id="stop300" />
</linearGradient>















<linearGradient
   id="SVGID_83_"
   gradientUnits="userSpaceOnUse"
   x1="1731.0106"
   y1="-98.824097"
   x2="1799.4485"
   y2="-98.824097"
   gradientTransform="translate(0,-1020)">
	<stop
   offset="0"
   style="stop-color:#A8A8A8"
   id="stop700" />
	<stop
   offset="1"
   style="stop-color:#333333"
   id="stop702" />
</linearGradient>




<linearGradient
   id="SVGID_92_"
   gradientUnits="userSpaceOnUse"
   x1="5.9404001"
   y1="564.10992"
   x2="70.139999"
   y2="564.10992"
   gradientTransform="translate(0,-1020)">
	<stop
   offset="0"
   style="stop-color:#A8A8A8"
   id="stop769" />
	<stop
   offset="1"
   style="stop-color:#333333"
   id="stop771" />
</linearGradient>









<linearGradient
   id="SVGID_112_"
   gradientUnits="userSpaceOnUse"
   x1="11.5264"
   y1="959.93683"
   x2="77.303596"
   y2="959.93683"
   gradientTransform="translate(0,-1020)">
	<stop
   offset="0"
   style="stop-color:#A8A8A8"
   id="stop933" />
	<stop
   offset="1"
   style="stop-color:#333333"
   id="stop935" />
</linearGradient>




<linearGradient
   id="SVGID_126_"
   gradientUnits="userSpaceOnUse"
   x1="232.4281"
   y1="946.85968"
   x2="283.0986"
   y2="946.85968">
	<stop
   offset="0"
   style="stop-color:#A8A8A8"
   id="stop1047" />
	<stop
   offset="1"
   style="stop-color:#333333"
   id="stop1049" />
</linearGradient>





<g
   id="Group_36_1_"
   transform="matrix(0.84236726,0,0,0.84236726,276.72072,-264.9651)">
	
		<linearGradient
   id="Path_130_3_"
   gradientUnits="userSpaceOnUse"
   x1="-344.5647"
   y1="1074.8384"
   x2="-343.5647"
   y2="1074.8384"
   gradientTransform="matrix(64.1796,0,0,-64.564,21788.637,69745.055)">
		<stop
   offset="0"
   style="stop-color:#FFFFFF"
   id="stop1101" />
		<stop
   offset="1"
   style="stop-color:#000000"
   id="stop1103" />
	</linearGradient>
	<path
   id="Path_130_1_"
   class="st144"
   d="m -261.48,354.95 c -0.26,0.09 -0.49,0.25 -0.66,0.46 -1.68,1.63 -3.93,2.54 -6.27,2.52 -1.93,0.01 -3.86,0 -5.79,0 -1.31,0 -1.37,0.04 -1.61,1.31 -0.32,1.67 -0.62,3.34 -0.94,5.01 -0.16,0.84 -0.2,0.86 -1.02,0.86 h -3.52 c -0.82,0 -0.85,-0.06 -0.69,-0.89 1.47,-7.91 2.93,-15.81 4.39,-23.72 0.17,-0.95 0.17,-0.95 1.12,-0.95 h 10.4 c 0.33,0 0.68,0.04 1.01,0.07 0.98,0.13 1.94,0.35 2.88,0.66 0.4,-0.29 0.12,-0.6 0.01,-0.89 -1.87,-5.91 -5.4,-11.16 -10.17,-15.12 -4.07,-3.42 -8.93,-5.78 -14.14,-6.86 -1.34,-0.29 -2.68,-0.33 -4,-0.52 h -0.76 c -0.14,0.11 -0.32,0.04 -0.49,0.06 -0.11,-0.01 -0.26,0.06 -0.37,-0.06 h -2.39 c -0.1,0.1 -0.23,0.06 -0.35,0.06 -0.12,0 -0.2,0.01 -0.27,-0.06 h -0.5 c -0.09,0.09 -0.19,0.06 -0.3,0.06 -1.89,0.03 -3.77,0.32 -5.59,0.85 -6.49,1.73 -12.27,5.44 -16.55,10.61 -3.64,4.33 -6.07,9.56 -7.03,15.14 -0.17,0.99 -0.14,2 -0.3,2.98 v 0.63 c 0.09,0.07 0.06,0.19 0.06,0.27 -0.01,0.11 0.03,0.24 -0.07,0.35 v 2.39 c 0.12,0.14 0.04,0.32 0.06,0.49 -0.01,0.13 0.06,0.29 -0.06,0.4 v 0.63 c 0.06,0.11 0.08,0.24 0.06,0.36 0.02,1.58 0.24,3.14 0.63,4.67 0.07,0.27 0.07,0.6 0.43,0.71 0.39,-0.16 0.36,-0.55 0.42,-0.85 0.99,-5.39 1.99,-10.78 3,-16.17 0.16,-0.85 0.17,-0.86 1.01,-0.86 3.53,0 7.06,-0.01 10.59,0 0.86,0 1.72,0.13 2.55,0.36 3.05,0.86 5.12,3.7 5,6.87 -0.1,2.37 -0.83,4.67 -2.1,6.67 -1.64,2.86 -4.72,4.59 -8.02,4.49 -1.96,0.01 -3.9,0 -5.86,0 -0.99,0 -1.15,0.11 -1.34,1.11 -0.35,1.72 -0.68,3.43 -0.96,5.15 -0.1,0.59 -0.32,0.98 -0.95,1.04 -0.33,0.39 0.01,0.66 0.19,0.95 2.71,4.43 6.45,8.14 10.9,10.8 3.27,1.96 6.86,3.34 10.6,4.08 1.15,0.23 2.33,0.2 3.49,0.4 h 0.63 c 0.11,-0.11 0.24,-0.04 0.37,-0.06 0.13,0.01 0.27,-0.04 0.37,0.06 h 1.65 c 0.2,-0.1 0.43,-0.1 0.63,0 h 0.76 c 0.07,-0.07 0.19,-0.07 0.26,0 0,0 0,0 0,0 h 0.5 c 0.68,-0.13 1.37,-0.07 2.06,-0.16 2.65,-0.35 5.24,-1.05 7.7,-2.09 8.1,-3.3 14.52,-9.74 17.8,-17.86 0.72,-1.82 1.29,-3.69 1.7,-5.6 0.03,-0.26 0.28,-0.6 -0.16,-0.81 z m -22.45,3.33 c -0.75,-0.04 -1.51,-0.01 -2.26,-0.01 -0.75,0 -1.51,-0.04 -2.26,0.01 -0.53,0.04 -0.58,-0.17 -0.49,-0.6 0.36,-1.74 0.69,-3.5 1.02,-5.24 0.4,-2.07 0.79,-4.16 1.18,-6.24 0.28,-1.06 -0.36,-2.15 -1.42,-2.43 -0.05,-0.01 -0.1,-0.02 -0.15,-0.03 -0.53,-0.15 -1.07,-0.23 -1.61,-0.23 h -3.59 c -0.33,0 -0.55,0.03 -0.62,0.45 -0.83,4.62 -1.68,9.23 -2.52,13.84 -0.07,0.43 -0.23,0.63 -0.73,0.62 -1.47,-0.04 -2.94,-0.03 -4.41,0 -0.49,0.01 -0.63,-0.09 -0.53,-0.62 0.62,-3.26 1.21,-6.51 1.82,-9.77 0.91,-4.93 1.83,-9.84 2.72,-14.76 0.12,-0.59 0.29,-0.86 0.95,-0.83 1.37,0.06 2.74,0.04 4.09,0 0.56,-0.01 0.78,0.09 0.65,0.72 -0.39,1.89 -0.71,3.79 -1.08,5.67 -0.1,0.53 0.01,0.66 0.53,0.65 2.25,-0.01 4.49,-0.04 6.74,0.01 1.46,0 2.88,0.54 3.97,1.51 0.96,0.86 1.4,2.16 1.15,3.43 -0.65,4.44 -1.57,8.83 -2.4,13.24 -0.1,0.45 -0.26,0.64 -0.75,0.61 z"
   inkscape:connector-curvature="0"
   style="fill:url(#Path_130_3_)" />
	
		<linearGradient
   id="Path_131_3_"
   gradientUnits="userSpaceOnUse"
   x1="-413.91821"
   y1="1068.4659"
   x2="-412.91711"
   y2="1068.4659"
   gradientTransform="matrix(10.6988,0,0,-10.7189,4153.8218,11801.64)">
		<stop
   offset="0"
   style="stop-color:#000000"
   id="stop1107" />
		<stop
   offset="1"
   style="stop-color:#FFFFFF"
   id="stop1109" />
	</linearGradient>
	<path
   id="Path_131_1_"
   class="st145"
   d="m -269.68,343.5 c 0.93,-0.01 1.86,0.02 2.79,0.1 2.06,0.33 3.11,1.5 3.01,3.57 -0.05,1.9 -0.77,3.73 -2.03,5.16 -1.17,1.24 -2.81,1.92 -4.51,1.87 -1.21,0.03 -2.43,0 -3.66,0.01 -0.45,0.01 -0.55,-0.16 -0.47,-0.56 l 1.77,-9.64 c 0.06,-0.35 0.2,-0.55 0.62,-0.52 0.75,0.04 1.53,0.01 2.48,0.01 z"
   inkscape:connector-curvature="0"
   style="fill:url(#Path_131_3_)" />
	
		<linearGradient
   id="Path_132_3_"
   gradientUnits="userSpaceOnUse"
   x1="-414.42789"
   y1="1068.4789"
   x2="-413.4259"
   y2="1068.4789"
   gradientTransform="matrix(10.6335,0,0,-10.7372,4088.9485,11821.266)">
		<stop
   offset="0"
   style="stop-color:#000000"
   id="stop1113" />
		<stop
   offset="1"
   style="stop-color:#FFFFFF"
   id="stop1115" />
	</linearGradient>
	<path
   id="Path_132_1_"
   class="st146"
   d="m -315.56,354.21 c -0.63,0 -1.27,-0.01 -1.89,0 -0.36,0.01 -0.47,-0.1 -0.4,-0.48 0.37,-1.96 0.72,-3.92 1.07,-5.88 0.23,-1.28 0.48,-2.55 0.71,-3.83 0.04,-0.26 0.04,-0.53 0.4,-0.52 1.84,-0.07 3.69,-0.03 5.53,0.11 2.05,0.3 2.91,1.35 2.91,3.41 0.03,2 -0.72,3.93 -2.09,5.39 -1.19,1.22 -2.85,1.86 -4.55,1.77 -0.56,0.04 -1.12,0.03 -1.69,0.03 z"
   inkscape:connector-curvature="0"
   style="fill:url(#Path_132_3_)" />
</g>









<linearGradient
   id="SVGID_172_"
   gradientUnits="userSpaceOnUse"
   x1="10.5622"
   y1="859.1759"
   x2="79"
   y2="859.1759"
   gradientTransform="translate(0,-1020)">
	<stop
   offset="0"
   style="stop-color:#A8A8A8"
   id="stop1449" />
	<stop
   offset="1"
   style="stop-color:#333333"
   id="stop1451" />
</linearGradient>



</svg>